<?xml version="1.0" encoding="UTF-8"?>
<svg width="92px" height="24px" viewBox="0 0 92 24" version="1.1" xmlns="http://www.w3.org/2000/svg" xmlns:xlink="http://www.w3.org/1999/xlink">
    <!-- Generator: Sketch 48.2 (47327) - http://www.bohemiancoding.com/sketch -->
    <title>Group 4</title>
    <desc>Created with Sketch.</desc>
    <defs>
        <polygon id="path-1" points="3.47171515e-16 22.3763117 3.47171515e-16 0.106867284 34.3182428 0.106867284 34.3182428 22.3763117"></polygon>
    </defs>
    <g id="01-Home" stroke="none" stroke-width="1" fill="none" fill-rule="evenodd" transform="translate(-145.000000, -63.000000)">
        <g id="Group-4" transform="translate(145.000000, 63.000000)">
            <g id="Page-1">
                <g id="Group-3" transform="translate(0.000000, 1.358503)">
                    <mask id="mask-2" fill="white">
                        <use xlink:href="#path-1"></use>
                    </mask>
                    <g id="Clip-2"></g>
                    <path d="M26.4863423,21.2846451 C24.2046507,21.2846451 23.4645313,18.1966821 23.4645313,14.5165895 C23.4645313,11.5536265 23.9886109,8.12307099 26.4863423,8.12307099 C28.8298249,8.12307099 29.4152378,11.335571 29.4152378,14.5790895 C29.4152378,18.2902006 28.6444517,21.2846451 26.4863423,21.2846451 M26.4556756,7.03094136 C21.6135463,7.03094136 18.5615264,10.1814043 18.5615264,14.7036265 C18.5615264,14.8513117 18.5647303,14.997608 18.571596,15.1411265 C18.6132478,16.0443673 18.3656259,16.9452932 17.7884517,17.635571 C16.3260637,19.3846451 14.6284119,20.3804784 12.1178647,20.3804784 C8.35593433,20.3804784 5.70441194,17.572608 5.70441194,10.960571 C5.70441194,4.94158951 7.83185473,1.41705247 11.5937851,1.41705247 C14.5542627,1.41705247 16.373208,3.63186728 17.8845711,8.40362654 L19.1794368,8.40362654 L19.0563124,0.325385802 L17.8534468,0.325385802 L16.990203,1.57307099 C15.6024219,0.824459877 13.8759343,0.106867284 11.4395363,0.106867284 C4.77937711,0.106867284 -4.57711443e-05,4.75408951 -4.57711443e-05,11.5221451 C-4.57711443e-05,18.3527006 4.84116816,22.3763117 10.9461234,22.3763117 C14.9062428,22.3763117 17.5628,20.4596451 19.1858448,17.9466821 C20.3781831,20.7689043 23.1473373,22.3763117 26.3316358,22.3763117 C31.6049294,22.3763117 34.3182428,18.9448302 34.3182428,14.610571 C34.3182428,10.2124228 31.3888896,7.03094136 26.4556756,7.03094136" id="Fill-1" fill="#222020" mask="url(#mask-2)"></path>
                </g>
                <path d="M44.2535104,23.2670833 L44.2535104,22.2999537 C44.68559,22.2689352 45.0554209,22.2064352 45.3945851,22.0814352 C45.8266647,21.8948611 45.9493313,21.395787 45.9493313,20.7096759 L45.9493313,13.7545833 C45.9493313,11.695787 45.0860876,10.5731019 44.0690527,10.5731019 C42.3109831,10.5731019 41.3548239,11.8518056 41.0774507,12.5693981 L41.0774507,20.5536574 C41.0774507,21.2397685 41.2312418,21.6763426 41.6939881,21.9258796 C42.0331522,22.1439352 42.4345652,22.2689352 42.8350627,22.2999537 L42.8350627,23.2670833 L34.5097493,23.2670833 L34.5097493,22.2999537 C35.0644955,22.2689352 35.4343264,22.2064352 35.866406,22.0814352 C36.4522766,21.8948611 36.6683164,21.395787 36.6683164,20.7096759 L36.6683164,3.55550926 C36.6683164,2.96291667 36.3291522,2.08930556 35.8352816,1.74625 C35.4659085,1.49717593 34.2937095,1.34069444 33.7385055,1.30967593 L33.7385055,0.374027778 L40.8614109,-4.62962963e-05 L41.0774507,0.218472222 L41.0774507,10.9471759 L41.1387841,10.9471759 C42.3109831,9.79300926 43.5440577,8.38930556 46.1960378,8.38930556 C49.0640577,8.38930556 50.38959,10.3545833 50.38959,13.3175463 L50.38959,20.584213 C50.38959,21.270787 50.5749632,21.7073611 51.1297095,21.9573611 C51.5617891,22.1439352 51.9311622,22.2689352 52.4863662,22.2999537 L52.4863662,23.2670833 L44.2535104,23.2670833 Z" id="Fill-4" fill="#222020"></path>
                <path d="M63.3580199,23.2670833 L63.3580199,21.270787 L63.2660199,21.270787 C62.0938209,22.4564352 60.8909552,23.7031944 58.2389751,23.7031944 C55.3718706,23.7031944 54.2001294,21.5518056 54.2001294,18.6198611 L54.2001294,11.9448611 C54.2001294,11.1652315 53.8916318,10.7286574 53.3982189,10.3856019 C53.0283881,10.1365278 52.3807264,9.98050926 51.8255224,9.94902778 L51.8255224,9.01337963 L58.4861393,8.60782407 L58.6399303,8.82634259 L58.6399303,18.5573611 C58.6399303,20.6156944 59.4729652,21.6763426 60.459791,21.6763426 C62.1556119,21.6763426 63.0188557,20.3976389 63.3273532,19.7735648 L63.3273532,11.8518056 C63.2660199,11.196713 63.0499801,10.6661574 62.5872338,10.3231019 C62.279194,10.0740278 61.570199,10.0115278 60.8607463,9.98050926 L60.8607463,9.01337963 L67.5209055,8.60782407 L67.7364876,8.82634259 L67.7364876,20.1795833 C67.7982786,20.834213 68.0445274,21.333287 68.5379403,21.6763426 C68.9086866,21.9258796 69.5558905,21.9879167 70.1110945,22.0193981 L70.1110945,23.2670833 L63.3580199,23.2670833 Z" id="Fill-6" fill="#222020"></path>
                <path d="M78.2323144,10.3857407 C77.0605731,10.3857407 76.4124537,10.8537963 75.7968318,11.6959259 L75.7968318,20.3352778 C76.1048716,21.2709259 76.7832,22.6121296 78.3865632,22.6121296 C80.1748418,22.6121296 81.4697075,20.2727778 81.4697075,16.3112037 C81.4697075,13.3176852 80.6064637,10.3857407 78.2323144,10.3857407 M79.1266826,23.7348148 C75.8888318,23.7348148 74.6552995,22.6121296 73.9769711,22.1130556 L72.8111801,23.2612037 L71.2142249,23.2672222 C71.3071403,22.0190741 71.3867821,20.2422222 71.3867821,17.9959259 L71.3867821,3.55564815 C71.3867821,2.90009259 71.0476179,2.08944444 70.554205,1.77787037 C70.1843741,1.52787037 69.0437572,1.34083333 68.4885532,1.30981481 L68.4885532,0.374166667 L75.580792,9.25925926e-05 L75.7968318,0.218611111 L75.7968318,10.3857407 L75.8888318,10.3857407 C76.6284935,9.60564815 78.1398567,8.38944444 80.0517174,8.38944444 C83.6589413,8.38944444 86.3420458,11.3528704 86.3420458,16.1246296 C86.3420458,20.5533333 83.1971104,23.7348148 79.1266826,23.7348148" id="Fill-8" fill="#222020"></path>
                <path d="M89.1168299,5.55175926 C87.6059244,5.55175926 86.3421831,4.30453704 86.3421831,2.77583333 C86.3421831,1.24805556 87.6059244,-9.25925926e-05 89.1168299,-9.25925926e-05 C90.628193,-9.25925926e-05 91.892392,1.24805556 91.892392,2.77583333 C91.892392,4.30453704 90.628193,5.55175926 89.1168299,5.55175926" id="Fill-10" fill="#63B05A"></path>
            </g>
        </g>
    </g>
</svg>